# Blender 4.1.1
# www.blender.org
mtllib Poster.mtl
o Poster
v 0.210000 -0.297000 0.000000
v -0.210000 -0.297000 0.000000
v 0.210000 0.297000 -0.000000
v -0.210000 0.297000 -0.000000
v 0.210000 0.297000 -0.009084
v 0.210000 -0.297000 -0.009084
v -0.210000 -0.297000 -0.009084
v -0.210000 0.297000 -0.009084
vn -0.0000 -0.0000 1.0000
vn -1.0000 -0.0000 -0.0000
vn 1.0000 -0.0000 -0.0000
vn -0.0000 1.0000 -0.0000
vn -0.0000 -1.0000 -0.0000
vt 0.700925 0.014839
vt 0.700925 0.985161
vt 0.014839 0.985161
vt 0.014839 0.014839
vt 0.000000 0.985161
vt 0.000000 0.014839
vt 0.715764 0.014839
vt 0.715764 0.985161
vt 0.700925 1.000000
vt 0.014839 1.000000
vt 0.014839 0.000000
vt 0.700925 0.000000
s 1
f 1/1/1 3/2/1 4/3/1 2/4/1
f 4/3/2 8/5/2 7/6/2 2/4/2
f 1/1/3 6/7/3 5/8/3 3/2/3
f 3/2/4 5/9/4 8/10/4 4/3/4
f 2/4/5 7/11/5 6/12/5 1/1/5
